<svg width="64" height="64" viewBox="0 0 64 64" fill="none" xmlns="http://www.w3.org/2000/svg">
<rect width="64" height="64" fill="#900202"/>
<path d="M10 23.7927C10 22.8478 10.1336 21.9653 10.4008 21.1452C10.668 20.3251 11.0242 19.6119 11.4695 19.0057C11.9326 18.3817 12.4759 17.8914 13.0993 17.5349C13.7228 17.1783 14.3818 17 15.0765 17H29.2639C29.9586 17 30.6088 17.1783 31.2144 17.5349C31.8378 17.8914 32.3811 18.3817 32.8442 19.0057C33.3073 19.6119 33.6725 20.3251 33.9396 21.1452C34.2068 21.9653 34.3404 22.8478 34.3404 23.7927V32.6982H16.3857V40.4269H35.997C35.9257 41.0509 35.7476 41.6482 35.4626 42.2187C35.1954 42.7714 34.8481 43.2528 34.4206 43.6628C34.0109 44.0729 33.5389 44.4027 33.0045 44.6523C32.4701 44.8841 33.619 45 33.0312 45H15.0765C14.3818 45 13.7228 44.8217 13.0993 44.4651C12.4759 44.1086 11.9326 43.6272 11.4695 43.021C11.0242 42.397 10.668 41.6749 10.4008 40.8548C10.1336 40.0347 10 39.1522 10 38.2073V23.7927ZM27.9547 28.9542V21.5731H16.3857V28.9542H27.9547Z" fill="white"/>
<path d="M33.0312 40.0258L48.2607 21.5731H33.8328L29.2639 17H55.0739V21.9207L39.9246 40.4269H57.1579C57.0866 41.0509 56.9085 41.6482 56.6235 42.2187C56.3563 42.7714 56.009 43.2528 55.5815 43.6628C55.1718 44.0729 54.6998 44.4027 54.1654 44.6523C53.6311 44.8841 53.07 45 52.4822 45H33.0312V40.0258Z" fill="white"/>
</svg>
